<svg version="1.1" viewBox="0.0 0.0 997.4409448818898 1152.0" fill="none" stroke="none" stroke-linecap="square" stroke-miterlimit="10" xmlns:xlink="http://www.w3.org/1999/xlink" xmlns="http://www.w3.org/2000/svg"><clipPath id="g3367b126d55_0_151.0"><path d="m0 0l997.4409 0l0 1152.0l-997.4409 0l0 -1152.0z" clip-rule="nonzero"/></clipPath><g clip-path="url(#g3367b126d55_0_151.0)"><path fill="#000000" fill-opacity="0.0" d="m0 0l997.4409 0l0 1152.0l-997.4409 0z" fill-rule="evenodd"/><path fill="#333333" d="m498.72177 0l498.9919 287.0003l0 577.9994l-498.9919 287.0003l-498.99188 -287.0003l0 -577.9994z" fill-rule="evenodd"/><path fill="#fcfcfc" d="m498.72046 57.6063l448.99194 258.2423l0 520.30273l-448.99194 258.2423l-448.9919 -258.2423l0 -520.30273z" fill-rule="evenodd"/><path fill="#000000" fill-opacity="0.0" d="m45.081364 405.73752l913.92126 -52.06299" fill-rule="evenodd"/><path stroke="#b4c8d7" stroke-width="12.0" stroke-linejoin="round" stroke-linecap="butt" d="m45.081364 405.73752l913.92126 -52.06299" fill-rule="evenodd"/><path fill="#000000" fill-opacity="0.0" d="m45.37008 436.72964l906.6772 155.93704" fill-rule="evenodd"/><path stroke="#b4c8d7" stroke-width="12.0" stroke-linejoin="round" stroke-linecap="butt" d="m45.37008 436.72964l906.6772 155.93704" fill-rule="evenodd"/><path fill="#000000" fill-opacity="0.0" d="m43.519684 465.2656l910.8976 365.41733" fill-rule="evenodd"/><path stroke="#b4c8d7" stroke-width="12.0" stroke-linejoin="round" stroke-linecap="butt" d="m43.519684 465.2656l910.8976 365.41733" fill-rule="evenodd"/><path fill="#000000" fill-opacity="0.0" d="m44.75328 496.9134l740.5984 436.25195" fill-rule="evenodd"/><path stroke="#b4c8d7" stroke-width="12.0" stroke-linejoin="round" stroke-linecap="butt" d="m44.75328 496.9134l740.5984 436.25195" fill-rule="evenodd"/><path fill="#000000" fill-opacity="0.0" d="m45.062992 533.3333l556.31494 504.69293" fill-rule="evenodd"/><path stroke="#b4c8d7" stroke-width="12.0" stroke-linejoin="round" stroke-linecap="butt" d="m45.062992 533.3333l556.31494 504.69293" fill-rule="evenodd"/><path fill="#000000" fill-opacity="0.0" d="m234.0 202.0l369.54333 839.0552" fill-rule="evenodd"/><path stroke="#d6e8f5" stroke-width="12.0" stroke-linejoin="round" stroke-linecap="butt" d="m234.0 202.0l369.54333 839.0552" fill-rule="evenodd"/><path fill="#000000" fill-opacity="0.0" d="m427.82678 87.826775l523.9055 267.33856" fill-rule="evenodd"/><path stroke="#d6e8f5" stroke-width="12.0" stroke-linejoin="round" stroke-linecap="butt" d="m427.82678 87.826775l523.9055 267.33856" fill-rule="evenodd"/><path fill="#000000" fill-opacity="0.0" d="m324.66666 151.33333l629.00793 680.53546" fill-rule="evenodd"/><path stroke="#d6e8f5" stroke-width="12.0" stroke-linejoin="round" stroke-linecap="butt" d="m324.66666 151.33333l629.00793 680.53546" fill-rule="evenodd"/><path fill="#000000" fill-opacity="0.0" d="m367.82678 124.34908l588.126 468.50394" fill-rule="evenodd"/><path stroke="#d6e8f5" stroke-width="12.0" stroke-linejoin="round" stroke-linecap="butt" d="m367.82678 124.34908l588.126 468.50394" fill-rule="evenodd"/><path fill="#000000" fill-opacity="0.0" d="m278.66666 175.33333l506.80313 758.5512" fill-rule="evenodd"/><path stroke="#d6e8f5" stroke-width="12.0" stroke-linejoin="round" stroke-linecap="butt" d="m278.66666 175.33333l506.80313 758.5512" fill-rule="evenodd"/><path fill="#000000" fill-opacity="0.0" d="m181.66667 226.66667l209.98424 823.33856" fill-rule="evenodd"/><path stroke="#d6e8f5" stroke-width="12.0" stroke-linejoin="round" stroke-linecap="butt" d="m181.66667 226.66667l209.98424 823.33856" fill-rule="evenodd"/><path fill="#000000" fill-opacity="0.0" d="m44.262466 421.31235l907.3701 52.472443" fill-rule="evenodd"/><path stroke="#d6e8f5" stroke-width="12.0" stroke-linejoin="round" stroke-linecap="butt" d="m44.262466 421.31235l907.3701 52.472443" fill-rule="evenodd"/><path fill="#000000" fill-opacity="0.0" d="m45.67979 451.23358l905.76373 261.7008" fill-rule="evenodd"/><path stroke="#d6e8f5" stroke-width="12.0" stroke-linejoin="round" stroke-linecap="butt" d="m45.67979 451.23358l905.76373 261.7008" fill-rule="evenodd"/><path fill="#000000" fill-opacity="0.0" d="m45.67979 482.09973l829.70074 399.4646" fill-rule="evenodd"/><path stroke="#d6e8f5" stroke-width="12.0" stroke-linejoin="round" stroke-linecap="butt" d="m45.67979 482.09973l829.70074 399.4646" fill-rule="evenodd"/><path fill="#000000" fill-opacity="0.0" d="m42.283466 512.03674l652.7874 475.43304" fill-rule="evenodd"/><path stroke="#d6e8f5" stroke-width="12.0" stroke-linejoin="round" stroke-linecap="butt" d="m42.283466 512.03674l652.7874 475.43304" fill-rule="evenodd"/><path fill="#000000" fill-opacity="0.0" d="m44.97113 553.2546l481.3228 533.19684" fill-rule="evenodd"/><path stroke="#d6e8f5" stroke-width="12.0" stroke-linejoin="round" stroke-linecap="butt" d="m44.97113 553.2546l481.3228 533.19684" fill-rule="evenodd"/><path fill="#000000" fill-opacity="0.0" d="m43.44357 389.34384l813.92126 -134.92914" fill-rule="evenodd"/><path stroke="#d6e8f5" stroke-width="12.0" stroke-linejoin="round" stroke-linecap="butt" d="m43.44357 389.34384l813.92126 -134.92914" fill-rule="evenodd"/><path fill="#000000" fill-opacity="0.0" d="m302.0 163.33333l580.25195 725.38586" fill-rule="evenodd"/><path stroke="#b4c8d7" stroke-width="12.0" stroke-linejoin="round" stroke-linecap="butt" d="m302.0 163.33333l580.25195 725.38586" fill-rule="evenodd"/><path fill="#000000" fill-opacity="0.0" d="m254.0 186.66667l440.62994 802.61414" fill-rule="evenodd"/><path stroke="#b4c8d7" stroke-width="12.0" stroke-linejoin="round" stroke-linecap="butt" d="m254.0 186.66667l440.62994 802.61414" fill-rule="evenodd"/><path fill="#000000" fill-opacity="0.0" d="m397.39108 107.826775l557.7638 369.76376" fill-rule="evenodd"/><path stroke="#b4c8d7" stroke-width="12.0" stroke-linejoin="round" stroke-linecap="butt" d="m397.39108 107.826775l557.7638 369.76376" fill-rule="evenodd"/><path fill="#000000" fill-opacity="0.0" d="m346.66666 139.33333l610.48816 578.5512" fill-rule="evenodd"/><path stroke="#b4c8d7" stroke-width="12.0" stroke-linejoin="round" stroke-linecap="butt" d="m346.66666 139.33333l610.48816 578.5512" fill-rule="evenodd"/><path fill="#000000" fill-opacity="0.0" d="m208.66667 216.0l315.0551 870.45667" fill-rule="evenodd"/><path stroke="#b4c8d7" stroke-width="12.0" stroke-linejoin="round" stroke-linecap="butt" d="m208.66667 216.0l315.0551 870.45667" fill-rule="evenodd"/><path fill="#333333" d="m12.738045 313.51733l484.7874 -279.87402l10.425201 18.110233l-484.7874 279.87402z" fill-rule="evenodd"/><path fill="#333333" d="m208.70427 539.9012c-13.940063 -6.1035156E-5 -25.905289 2.033081 -35.895676 6.099365c-9.990402 4.0370483 -17.613876 9.566101 -22.870438 16.587097c-5.2565765 6.991699 -7.884842 15.065857 -7.884842 24.222351c0 8.278931 1.5537415 15.022034 4.661209 20.229248c3.1365051 5.2072754 7.289505 9.346741 12.458939 12.418396c5.1694336 3.0424805 10.876144 5.338928 17.120148 6.8894043c6.243988 1.5212402 12.4444275 2.7352905 18.601273 3.6421509c6.1568756 0.87768555 11.820038 1.7698975 16.989471 2.6768188c5.1984863 0.90686035 9.351471 2.2086792 12.458939 3.9054565c3.1365051 1.6967163 4.704773 4.2564697 4.704773 7.679199c0 4.124817 -2.0184174 7.357422 -6.0552216 9.697754c-4.0077667 2.340332 -10.832596 3.510437 -20.474487 3.510437c-8.741577 0 -17.61383 -1.3018188 -26.616821 -3.9054565c-9.002945 -2.6036377 -16.8152 -5.9678955 -23.436737 -10.092773l-13.8965 30.190247c6.5924683 4.475891 15.551865 8.205811 26.87819 11.189758c11.326309 2.954712 23.146332 4.432068 35.460052 4.432068c14.46283 6.1035156E-5 26.732986 -1.9746094 36.8105 -5.923889c10.077515 -3.9492798 17.788116 -9.375916 23.131805 -16.279846c5.3727417 -6.9332275 8.059113 -14.890381 8.059113 -23.871338c0 -8.278931 -1.6118164 -14.978149 -4.8354797 -20.097595c-3.1946106 -5.119507 -7.333069 -9.156555 -12.415375 -12.111267c-5.082306 -2.9839478 -10.745453 -5.2803955 -16.989456 -6.8894043c-6.243988 -1.6381836 -12.4444275 -2.852295 -18.601273 -3.6421509c-6.1568756 -0.81915283 -11.834564 -1.7698975 -17.033035 -2.852295c-5.1694336 -1.0824585 -9.322418 -2.5158691 -12.458939 -4.300415c-3.1074677 -1.8137207 -4.661209 -4.505127 -4.661209 -8.074097c0 -3.9785767 2.1345825 -7.225769 6.403717 -9.741638c4.2981873 -2.5158691 11.093979 -3.7737427 20.38736 -3.7737427c6.592499 0 13.402817 0.77526855 20.430923 2.3257446c7.0571594 1.5212402 14.070755 4.3442383 21.040787 8.469116l13.8965 -29.92694c-6.766754 -4.124878 -15.232437 -7.2697144 -25.397064 -9.434509c-10.164642 -2.164856 -20.15503 -3.2472534 -29.971146 -3.2472534z" fill-rule="evenodd"/><path fill="#333333" d="m360.97614 571.71533c7.144287 0 13.388275 1.5797119 18.731964 4.739197c5.3437195 3.130188 9.525726 7.4890747 12.546082 13.076599c2.0228271 3.6871948 3.3747559 7.8120117 4.055725 12.374512l-70.87683 -1.2207031E-4c0.6914673 -4.519287 2.0115051 -8.600281 3.960083 -12.242859c3.049408 -5.675293 7.2894897 -10.078003 12.720337 -13.208191c5.4308167 -3.1594238 11.718353 -4.7391357 18.86264 -4.7391357zm-0.26138306 -31.813904c-14.637054 0 -27.763947 3.203308 -39.380676 9.609924c-11.5877075 6.3773804 -20.721344 15.182861 -27.40097 26.416443c-6.6796265 11.233582 -10.019409 24.119995 -10.019409 38.6593c0 14.393005 3.3833618 27.20636 10.150116 38.43994c6.7957764 11.233582 16.394104 20.083008 28.794952 26.548157c12.400848 6.46521 26.805603 9.697815 43.214203 9.697876c13.010742 0 24.511292 -2.0184937 34.50168 -6.055542c9.990387 -4.0370483 18.296356 -9.829346 24.917877 -17.376953l-22.21698 -24.266296c-4.8209534 4.651367 -10.13559 8.147217 -15.94397 10.487549c-5.779297 2.340332 -12.517029 3.510498 -20.213074 3.510437c-8.567352 0 -16.016571 -1.5651245 -22.347687 -4.6953125c-6.3311157 -3.1594238 -11.239197 -7.7523804 -14.724213 -13.778687c-1.8723755 -3.2650146 -3.2375488 -6.8047485 -4.0954895 -10.619263l108.90741 1.8310547E-4c0.17425537 -1.8137817 0.34851074 -3.7445068 0.5227356 -5.7922974c0.17425537 -2.0770874 0.26138306 -3.920044 0.26138306 -5.5290527c0 -15.65094 -3.2962341 -29.0932 -9.888733 -40.326843c-6.592499 -11.233582 -15.566406 -19.863586 -26.921753 -25.889954c-11.326324 -6.026367 -24.032104 -9.039551 -38.1174 -9.039612z" fill-rule="evenodd"/><path fill="#333333" d="m484.33975 474.95752c-7.6670227 0 -13.911011 2.2525635 -18.731964 6.7576904c-4.820923 4.4758606 -7.231415 10.034149 -7.231415 16.674835c0 6.669922 2.410492 12.257477 7.231415 16.762604c4.8209534 4.475891 11.064941 6.713867 18.731964 6.713867c7.8703613 0 14.157898 -2.2963867 18.86267 -6.889282c4.7338257 -4.5928955 7.1007385 -10.385223 7.1007385 -17.376953c0 -6.6699524 -2.410492 -12.111206 -7.231415 -16.323822c-4.8209534 -4.2125854 -11.064941 -6.3189087 -18.731995 -6.318939zm-20.866516 67.13818l0 145.02734l41.77664 1.2207031E-4l0 -145.02734z" fill-rule="evenodd"/><path fill="#333333" d="m631.5531 539.902c-12.284668 0 -23.247925 2.618225 -32.88983 7.8546753c-5.685669 3.0706177 -10.59375 6.9244995 -14.724182 11.5616455l0 0l0 -17.222351l-39.903442 -6.1035156E-5l0 145.02734l41.77661 6.1035156E-5l0 -71.70184c0 -9.010315 1.4666138 -16.382324 4.3998413 -22.11615c2.9622803 -5.7630615 7.0717163 -10.034119 12.328247 -12.813293c5.256592 -2.7791138 11.181091 -4.16864 17.77362 -4.16864c9.293335 0 16.481201 2.7938232 21.563538 8.381348c5.0823364 5.5582886 7.623474 14.173645 7.623474 25.846008l0 76.57269l41.776672 6.1035156E-5l0 -83.02319c0 -14.74408 -2.5992432 -26.82605 -7.7977295 -36.24585c-5.1694946 -9.449097 -12.255676 -16.470093 -21.258606 -21.06305c-9.002991 -4.5928955 -19.225708 -6.8893433 -30.668213 -6.8894043z" fill-rule="evenodd"/><path fill="#333333" d="m796.4414 571.7162c7.144287 0 13.388306 1.5797119 18.731995 4.739197c5.343689 3.130188 9.525696 7.4890747 12.546082 13.076599c2.0228271 3.6871948 3.3747559 7.8120117 4.055664 12.374512l-70.87677 -1.2207031E-4c0.6914673 -4.519287 2.0114746 -8.600281 3.960083 -12.242859c3.0493774 -5.675293 7.2894897 -10.078003 12.720337 -13.208191c5.430786 -3.1594238 11.718323 -4.7391357 18.86261 -4.7391357zm-0.26135254 -31.813904c-14.637085 0 -27.763977 3.203308 -39.380676 9.609924c-11.5877075 6.3773804 -20.721375 15.182861 -27.401001 26.416443c-6.6796265 11.233582 -10.019409 24.119995 -10.019409 38.6593c0 14.393005 3.3833618 27.20636 10.1501465 38.43994c6.7957764 11.233582 16.394104 20.083008 28.794922 26.548157c12.400879 6.46521 26.805603 9.697815 43.214233 9.697876c13.010742 0 24.511292 -2.0184937 34.501648 -6.055542c9.9904175 -4.0370483 18.296387 -9.829346 24.917908 -17.376953l-22.21698 -24.266296c-4.820923 4.651367 -10.13562 8.147217 -15.94397 10.487549c-5.779297 2.340332 -12.517029 3.510498 -20.213074 3.510437c-8.567383 0 -16.016602 -1.5651245 -22.347717 -4.6953125c-6.3311157 -3.1594238 -11.239197 -7.7523804 -14.724182 -13.778687c-1.8723755 -3.2650146 -3.2375488 -6.8047485 -4.09552 -10.619263l108.90741 1.8310547E-4c0.17425537 -1.8137817 0.34851074 -3.7445068 0.5227661 -5.7922974c0.17425537 -2.0770874 0.26135254 -3.920044 0.26135254 -5.5290527c0 -15.65094 -3.2962646 -29.0932 -9.888733 -40.326843c-6.5924683 -11.233582 -15.566406 -19.863586 -26.921753 -25.889954c-11.326294 -6.026367 -24.032104 -9.039551 -38.11737 -9.039612z" fill-rule="evenodd"/><path fill="#425682" d="m196.45238 527.64923c-13.940063 -6.1035156E-5 -25.905289 2.033081 -35.895676 6.099365c-9.990387 4.0371094 -17.613876 9.566101 -22.870438 16.587097c-5.2565765 6.991699 -7.884842 15.065857 -7.884842 24.222351c0 8.278931 1.5537415 15.022034 4.661209 20.229248c3.1365204 5.2072754 7.289505 9.346741 12.458939 12.418396c5.1694336 3.0424805 10.876144 5.338928 17.120148 6.8894043c6.243988 1.5212402 12.4444275 2.7352905 18.601273 3.6421509c6.1568756 0.87768555 11.820038 1.7699585 16.989471 2.6768188c5.1984863 0.90686035 9.351471 2.2086792 12.458939 3.9054565c3.1365051 1.6967163 4.704773 4.2564697 4.704773 7.679199c0 4.124817 -2.0184174 7.357422 -6.0552216 9.697754c-4.0077667 2.340332 -10.832596 3.510437 -20.474472 3.510437c-8.741592 0 -17.613846 -1.3018188 -26.616821 -3.9054565c-9.00296 -2.6036377 -16.815216 -5.9678955 -23.436752 -10.092712l-13.896507 30.190186c6.592476 4.475891 15.551872 8.205811 26.878197 11.189758c11.326309 2.954712 23.146332 4.432068 35.460052 4.432068c14.46283 6.1035156E-5 26.732986 -1.9746094 36.8105 -5.923889c10.077515 -3.9492798 17.788116 -9.3758545 23.131805 -16.279846c5.3727417 -6.9332275 8.059113 -14.890381 8.059113 -23.871338c0 -8.278931 -1.6118317 -14.978149 -4.8354645 -20.097595c-3.1946106 -5.119507 -7.333069 -9.156555 -12.415375 -12.111267c-5.082321 -2.9839478 -10.745468 -5.2803955 -16.989471 -6.8893433c-6.243988 -1.6382446 -12.4444275 -2.852356 -18.601273 -3.642212c-6.1568756 -0.81915283 -11.834564 -1.7698975 -17.033035 -2.852295c-5.1694336 -1.0823975 -9.322418 -2.5158691 -12.458923 -4.300415c-3.107483 -1.8137207 -4.6612244 -4.505127 -4.6612244 -8.074097c0 -3.9785767 2.1345825 -7.225769 6.4037323 -9.741638c4.298172 -2.5158691 11.093964 -3.7737427 20.387344 -3.7737427c6.592499 0 13.402817 0.77526855 20.430923 2.3257446c7.0571594 1.5212402 14.070755 4.3442383 21.040787 8.469116l13.896515 -29.92694c-6.766754 -4.124878 -15.232452 -7.2697144 -25.397064 -9.434509c-10.164642 -2.164856 -20.155045 -3.2472534 -29.97116 -3.2472534z" fill-rule="evenodd"/><path fill="#425682" d="m348.72424 559.4634c7.144287 0 13.388275 1.579773 18.731964 4.739197c5.3437195 3.130188 9.525726 7.4890747 12.546082 13.076599c2.0228577 3.6871948 3.3747559 7.8120117 4.055725 12.374512l-70.87683 -1.2207031E-4c0.6914673 -4.519287 2.0115051 -8.60022 3.960083 -12.242859c3.049408 -5.675293 7.2894897 -10.078003 12.720337 -13.208191c5.4308167 -3.1594238 11.718353 -4.7391357 18.86264 -4.7391357zm-0.26138306 -31.813843c-14.637054 -6.1035156E-5 -27.763947 3.203247 -39.380676 9.609863c-11.587677 6.3773804 -20.721344 15.182861 -27.40097 26.416443c-6.6796265 11.233582 -10.019409 24.119995 -10.019409 38.6593c0 14.393005 3.3833618 27.20636 10.150116 38.43994c6.7957764 11.233582 16.394104 20.083008 28.794952 26.548157c12.400848 6.46521 26.805603 9.697815 43.214203 9.697876c13.010742 0 24.511322 -2.0184937 34.50168 -6.055542c9.990387 -4.0370483 18.296356 -9.829346 24.917877 -17.376892l-22.21698 -24.266357c-4.8209534 4.651367 -10.13559 8.147217 -15.94397 10.487549c-5.779297 2.340332 -12.517029 3.510498 -20.213074 3.510498c-8.567352 -6.1035156E-5 -16.016571 -1.5651245 -22.347687 -4.6953735c-6.3311157 -3.1594238 -11.239197 -7.7523193 -14.724213 -13.778687c-1.8723755 -3.2650146 -3.2375488 -6.8047485 -4.0954895 -10.619263l108.90741 1.8310547E-4c0.17425537 -1.8137207 0.34851074 -3.7445068 0.5227356 -5.7922974c0.17425537 -2.0770874 0.26138306 -3.920044 0.26138306 -5.5290527c0 -15.65094 -3.2962341 -29.0932 -9.888733 -40.326843c-6.592499 -11.233582 -15.566406 -19.863586 -26.921753 -25.889954c-11.326324 -6.026367 -24.032104 -9.039551 -38.1174 -9.039551z" fill-rule="evenodd"/><path fill="#425682" d="m472.0879 462.7056c-7.667053 -3.0517578E-5 -13.911041 2.252533 -18.731995 6.75766c-4.820923 4.4758606 -7.231415 10.034149 -7.231415 16.674835c0 6.6699524 2.410492 12.257477 7.231415 16.762634c4.8209534 4.475891 11.064941 6.7138367 18.731995 6.713867c7.870331 0 14.157867 -2.2964172 18.86264 -6.8893127c4.7338257 -4.5928955 7.1007385 -10.385223 7.1007385 -17.376953c0 -6.669922 -2.410492 -12.111206 -7.231415 -16.323822c-4.8209534 -4.2125854 -11.064941 -6.3189087 -18.731964 -6.3189087zm-20.866547 67.13815l0 145.02734l41.77664 1.2207031E-4l0 -145.02734z" fill-rule="evenodd"/><path fill="#425682" d="m619.3012 527.65c-12.284668 0 -23.247925 2.618225 -32.88983 7.8546753c-5.685669 3.0706177 -10.59375 6.9244995 -14.724182 11.561707l0 0l0 -17.222412l-39.903442 -6.1035156E-5l0 145.02734l41.77661 6.1035156E-5l0 -71.70184c0 -9.010254 1.4666138 -16.382324 4.3998413 -22.11615c2.9622803 -5.7630005 7.0717163 -10.034119 12.328247 -12.813232c5.256592 -2.7791748 11.181091 -4.168701 17.77362 -4.168701c9.293335 0 16.481201 2.7938232 21.563538 8.381348c5.0823364 5.5582886 7.623474 14.173645 7.623474 25.846008l0 76.57269l41.776672 1.2207031E-4l0 -83.023254c0 -14.74408 -2.5992432 -26.82605 -7.7977295 -36.24585c-5.1694946 -9.449097 -12.255676 -16.470093 -21.258606 -21.06305c-9.002991 -4.5928955 -19.225708 -6.8893433 -30.668213 -6.8894043z" fill-rule="evenodd"/><path fill="#425682" d="m784.1895 559.46423c7.144287 0 13.388306 1.579773 18.731995 4.739197c5.343689 3.130188 9.525696 7.4890747 12.546082 13.076599c2.0228271 3.6871948 3.3747559 7.8120117 4.055725 12.374512l-70.87683 -1.2207031E-4c0.6914673 -4.519287 2.0114746 -8.600281 3.960083 -12.242859c3.0493774 -5.675293 7.2894897 -10.078003 12.720337 -13.208191c5.430786 -3.1594238 11.718323 -4.7391357 18.86261 -4.7391357zm-0.26135254 -31.813843c-14.637085 -6.1035156E-5 -27.763977 3.203247 -39.380676 9.609863c-11.5877075 6.3773804 -20.721375 15.182861 -27.401001 26.416443c-6.6796265 11.233582 -10.019409 24.119995 -10.019409 38.6593c0 14.393005 3.3833618 27.20636 10.1501465 38.43994c6.7957764 11.233582 16.394104 20.083008 28.794922 26.548157c12.400879 6.46521 26.805603 9.697815 43.214233 9.697876c13.010742 0 24.511292 -2.0184937 34.501648 -6.055542c9.9904175 -4.0370483 18.296387 -9.829346 24.917908 -17.376892l-22.21698 -24.266357c-4.820923 4.651367 -10.13562 8.147217 -15.94397 10.487549c-5.779297 2.340332 -12.517029 3.510498 -20.213074 3.510437c-8.567383 0 -16.016602 -1.5650635 -22.347717 -4.6953125c-6.3311157 -3.1594238 -11.239197 -7.7523193 -14.724182 -13.778687c-1.8723755 -3.2650146 -3.2375488 -6.8047485 -4.09552 -10.619263l108.90741 1.8310547E-4c0.17425537 -1.8137817 0.34851074 -3.7445068 0.5227661 -5.7922974c0.17425537 -2.0770874 0.26135254 -3.920044 0.26135254 -5.5290527c0 -15.65094 -3.2962646 -29.0932 -9.888733 -40.326843c-6.5924683 -11.233582 -15.566406 -19.863586 -26.921753 -25.889954c-11.326294 -6.026367 -24.032104 -9.039551 -38.11737 -9.039551z" fill-rule="evenodd"/><path fill="#e06666" d="m348.69617 559.4631c7.144287 0 13.388275 1.579773 18.731964 4.739197c5.343689 3.130249 9.525726 7.4890747 12.546051 13.07666c2.0228577 3.6871338 3.3747559 7.8119507 4.055725 12.374512l-70.8768 -1.8310547E-4c0.69143677 -4.519287 2.0114746 -8.60022 3.960083 -12.242798c3.0493774 -5.675293 7.2894897 -10.078064 12.720306 -13.208252c5.4308167 -3.1594238 11.718384 -4.7391357 18.86267 -4.7391357zm-0.26138306 -31.813843c-14.637085 -6.1035156E-5 -27.763977 3.203247 -39.380707 9.609924c-11.587677 6.3773193 -20.721344 15.1828 -27.40094 26.416382c-6.6796265 11.233582 -10.01944 24.120056 -10.01944 38.6593c0 14.393066 3.3833923 27.20636 10.150116 38.43994c6.795807 11.233643 16.394104 20.083008 28.794952 26.548218c12.400879 6.465149 26.805603 9.697754 43.214233 9.697815c13.010742 0 24.511292 -2.0184937 34.50168 -6.055542c9.990387 -4.0370483 18.296326 -9.829346 24.917877 -17.376892l-22.21698 -24.266357c-4.8209534 4.651428 -10.13562 8.147278 -15.94397 10.48761c-5.7793274 2.340271 -12.517029 3.510437 -20.213104 3.510437c-8.567322 0 -16.016571 -1.5651245 -22.347687 -4.6953125c-6.3311157 -3.1594849 -11.239166 -7.7523804 -14.724182 -13.778748c-1.8723755 -3.2649536 -3.2375488 -6.8047485 -4.09552 -10.619263l108.90741 2.4414062E-4c0.17425537 -1.8137817 0.34851074 -3.7445679 0.5227661 -5.7923584c0.17425537 -2.0770264 0.26138306 -3.920044 0.26138306 -5.5289917c0 -15.651001 -3.2962646 -29.093262 -9.888733 -40.326843c-6.592499 -11.233643 -15.566437 -19.863586 -26.921783 -25.889954c-11.326294 -6.026367 -24.032104 -9.039612 -38.11737 -9.039612z" fill-rule="evenodd"/><path fill="#e06666" d="m472.05978 462.7053c-7.667053 0 -13.911041 2.2525635 -18.731964 6.7576904c-4.8209534 4.4758606 -7.231415 10.034149 -7.231415 16.674835c0 6.669922 2.4104614 12.257477 7.231415 16.762604c4.820923 4.475891 11.064911 6.713867 18.731964 6.713867c7.870331 3.0517578E-5 14.157898 -2.2964172 18.86267 -6.8893127c4.733795 -4.592865 7.100708 -10.385193 7.100708 -17.376923c0 -6.6699524 -2.4104614 -12.111206 -7.231415 -16.323822c-4.8209534 -4.212616 -11.064911 -6.3189087 -18.731964 -6.318939zm-20.866547 67.138214l0 145.02734l41.77664 6.1035156E-5l0 -145.02734z" fill-rule="evenodd"/><path fill="#333333" d="m29.414276 835.59314l-0.661417 -526.04724l20.881887 0l0.6614189 526.04724z" fill-rule="evenodd"/><path fill="#333333" d="m947.7137 845.29553l0.03149414 -526.04724l20.881897 0.03149414l-0.03149414 526.04724z" fill-rule="evenodd"/><path fill="#333333" d="m498.72165 1094.7712l455.2441 -263.5905l10.425171 18.078735l-455.24408 263.5905z" fill-rule="evenodd"/><path fill="#333333" d="m947.16016 315.13745l-210.2992 -121.03935l7.779541 -13.448822l210.2992 121.03938z" fill-rule="evenodd"/><path fill="#333333" d="m51.918842 837.8404l456.0315 262.20477l-10.425201 18.078735l-456.0315 -262.20477z" fill-rule="evenodd"/></g></svg>